<svg id="visual" viewBox="0 0 900 600" width="900" height="600" xmlns="http://www.w3.org/2000/svg" xmlns:xlink="http://www.w3.org/1999/xlink" version="1.1"><rect x="0" y="0" width="900" height="600" fill="#8552d2"></rect><path d="M0 451L60 439L120 421L180 437L240 451L300 441L360 484L420 488L480 484L540 485L600 493L660 491L720 484L780 475L840 424L900 423L900 601L840 601L780 601L720 601L660 601L600 601L540 601L480 601L420 601L360 601L300 601L240 601L180 601L120 601L60 601L0 601Z" fill="#a8a89e"></path><path d="M0 473L60 477L120 512L180 460L240 476L300 490L360 504L420 471L480 500L540 477L600 474L660 464L720 457L780 486L840 467L900 510L900 601L840 601L780 601L720 601L660 601L600 601L540 601L480 601L420 601L360 601L300 601L240 601L180 601L120 601L60 601L0 601Z" fill="#c4c4bd"></path><path d="M0 516L60 508L120 494L180 541L240 534L300 535L360 528L420 538L480 545L540 531L600 542L660 537L720 496L780 508L840 495L900 520L900 601L840 601L780 601L720 601L660 601L600 601L540 601L480 601L420 601L360 601L300 601L240 601L180 601L120 601L60 601L0 601Z" fill="#e2e1dd"></path><path d="M0 541L60 551L120 560L180 538L240 567L300 549L360 538L420 566L480 553L540 569L600 553L660 556L720 563L780 539L840 560L900 560L900 601L840 601L780 601L720 601L660 601L600 601L540 601L480 601L420 601L360 601L300 601L240 601L180 601L120 601L60 601L0 601Z" fill="#ffffff"></path></svg>